<svg xmlns="http://www.w3.org/2000/svg" viewBox="0 0 32 32"><path d="M26.4 30.080c-0.64 0-1.28-0.48-1.28-1.28v-2.4c0-0.64 0.48-1.28 1.28-1.28s1.28 0.48 1.28 1.28v2.4c0 0.64-0.64 1.28-1.28 1.28zM15.2 30.080c-0.64 0-1.28-0.48-1.28-1.28v-2.4c0-0.64 0.48-1.28 1.28-1.28s1.28 0.48 1.28 1.28v2.4c0 0.64-0.64 1.28-1.28 1.28zM8.8 30.080c-0.64 0-1.28-0.48-1.28-1.28v-4.48h-4.32c-0.64 0-1.28-0.48-1.28-1.28v-18.24c0-0.64 0.48-1.28 1.28-1.28h24c0.64 0 1.28 0.48 1.28 1.28s-0.64 1.28-1.28 1.28h-22.72v16h4.48c0.64 0 1.28 0.48 1.28 1.28v5.44c-0.16 0.64-0.8 1.28-1.44 1.28z"></path><path d="M14.4 27.52c-0.8 0-1.44-0.32-1.92-0.8s-0.8-1.28-0.8-1.92v-12c0-2.4 1.92-4.48 4.48-4.48h9.6c2.4 0 4.48 1.92 4.48 4.48v12c0 1.6-1.28 2.72-2.72 2.88l-13.12-0.16c0 0 0 0 0 0zM16 10.88c-1.12 0-1.92 0.8-1.92 1.92v12c0 0.16 0 0.16 0.16 0.32 0 0 0.16 0.16 0.32 0.16 0 0 0 0 0 0h12.8c0.16 0 0.32-0.16 0.32-0.48v-12c0-1.12-0.96-2.080-2.080-2.080h-9.6z"></path><path d="M24.8 24.32c-0.64 0-1.28-0.48-1.28-1.28v-0.64c0-0.64 0.48-1.28 1.28-1.28s1.28 0.48 1.28 1.28v0.8c0 0.64-0.64 1.12-1.28 1.12zM16.8 24.32c-0.64 0-1.28-0.48-1.28-1.28v-0.64c0-0.64 0.48-1.28 1.28-1.28s1.28 0.48 1.28 1.28v0.8c0 0.64-0.64 1.12-1.28 1.12zM23.2 20.48h-4.8c-1.6 0-2.88-1.28-2.88-2.88v-7.2c0-0.64 0.48-1.28 1.28-1.28s1.28 0.48 1.28 1.28v7.2c0 0.16 0.16 0.48 0.48 0.48h4.8c0.16 0 0.48-0.16 0.48-0.48v-7.2c0-0.64 0.48-1.28 1.28-1.28s1.28 0.48 1.28 1.28v7.2c-0.32 1.6-1.6 2.88-3.2 2.88z"></path></svg>