<svg viewBox="0 0 32 32" xmlns="http://www.w3.org/2000/svg"><path d="M16 17.28c-3.36 0-6.080-2.72-6.080-6.080v-1.6c0-3.36 2.72-6.080 6.080-6.080s6.080 2.72 6.080 6.080v1.6c0 3.36-2.72 6.080-6.080 6.080zM16 6.080c-1.92 0-3.68 1.6-3.68 3.68v1.6c0 1.92 1.6 3.68 3.68 3.68 1.92 0 3.68-1.6 3.68-3.68v-1.76c0-1.92-1.76-3.52-3.68-3.52z"></path><path d="M24 29.28h-16c-0.64 0-1.28-0.48-1.28-1.28v-1.76c0-3.2 2.080-6.24 5.12-7.2l0.48-0.16c0.64-0.16 1.28 0.16 1.44 0.8s-0.16 1.28-0.8 1.44l-0.16 0.16c-2.080 0.64-3.52 2.72-3.52 4.96v0.64h13.6v-0.64c0-2.24-1.44-4.16-3.52-4.96l-0.48-0.16c-0.64-0.16-0.96-0.96-0.8-1.44 0.16-0.64 0.96-0.96 1.44-0.8l0.48 0.16c3.040 0.96 5.12 4 5.12 7.2v1.76c0.16 0.64-0.48 1.28-1.12 1.28z"></path></svg>