<svg  xmlns="http://www.w3.org/2000/svg" viewBox="0 0 32 32"><path d="M27.2 30.080c-0.32 0-0.64-0.16-0.8-0.32l-4.8-4.8c-0.48-0.48-0.48-1.28 0-1.76s1.28-0.48 1.76 0l4.8 4.8c0.48 0.48 0.48 1.28 0 1.76-0.32 0.16-0.64 0.32-0.96 0.32zM4.8 30.080c-0.32 0-0.64-0.16-0.8-0.32-0.48-0.48-0.48-1.28 0-1.76l4.8-4.8c0.48-0.48 1.28-0.48 1.76 0s0.48 1.28 0 1.76l-4.8 4.8c-0.32 0.16-0.64 0.32-0.96 0.32z"></path><path d="M23.2 25.28h-14.4c-1.6 0-2.88-1.28-2.88-2.88v-14.4c0-1.12 0.48-2.24 1.28-3.040s1.92-1.28 3.040-1.28c0 0 0 0 0 0h11.2c2.4 0 4.32 1.92 4.32 4.48v14.4c0.32 1.44-0.96 2.72-2.56 2.72zM10.4 6.080c-0.48 0-0.96 0.16-1.44 0.64-0.32 0.32-0.48 0.8-0.48 1.28v14.4c0 0.16 0.16 0.48 0.48 0.48h14.4c0.16 0 0.48-0.16 0.48-0.48v-14.4c0-1.12-0.96-1.92-1.92-2.080l-11.52 0.16c0 0 0 0 0 0z"></path><path d="M20.8 21.92c-0.64 0-1.28-0.48-1.28-1.28v-0.8c0-0.64 0.48-1.28 1.28-1.28s1.28 0.48 1.28 1.28v0.96c0 0.64-0.64 1.12-1.28 1.12zM11.2 21.92c-0.64 0-1.28-0.48-1.28-1.28v-0.8c0-0.64 0.48-1.28 1.28-1.28s1.28 0.48 1.28 1.28v0.96c0 0.64-0.64 1.12-1.28 1.12zM19.2 18.080h-6.4c-1.6 0-2.88-1.28-2.88-2.88v-9.6c0-0.64 0.48-1.28 1.28-1.28s1.28 0.48 1.28 1.28v9.6c0 0.16 0.16 0.48 0.48 0.48h6.4c0.16 0 0.48-0.16 0.48-0.48v-9.6c0-0.64 0.48-1.28 1.28-1.28s1.28 0.48 1.28 1.28v9.6c-0.32 1.6-1.6 2.88-3.2 2.88z"></path></svg>