<svg xmlns="http://www.w3.org/2000/svg" viewBox="0 0 32 32"><path d="M12.8 16c0 2.651-2.149 4.8-4.8 4.8s-4.8-2.149-4.8-4.8c0-2.651 2.149-4.8 4.8-4.8s4.8 2.149 4.8 4.8z"></path><path d="M23.84 20.96c-2.72 0-4.96-2.24-4.96-4.96s2.24-4.96 4.96-4.96 4.96 2.24 4.96 4.96c0 2.72-2.24 4.96-4.96 4.96zM23.84 13.44c-1.44 0-2.56 1.12-2.56 2.56s1.12 2.56 2.56 2.56 2.56-1.12 2.56-2.56-1.12-2.56-2.56-2.56z"></path><path d="M8 14.56c-0.8 0-1.44 0.64-1.44 1.44s0.64 1.44 1.44 1.44v-2.88zM19.2 17.44c0.8 0 1.44-0.64 1.44-1.44s-0.64-1.44-1.44-1.44v2.88zM8 17.44h11.2v-2.88h-11.2v2.88z"></path></svg>
