<svg xmlns="http://www.w3.org/2000/svg" viewBox="0 0 32 32"><path d="M24.8 27.68h-17.6c-1.6 0-2.88-1.28-2.88-2.88v-16c0-1.6 1.28-2.88 2.88-2.88h17.6c1.6 0 2.88 1.28 2.88 2.88v16c0 1.6-1.28 2.88-2.88 2.88zM7.2 8.48c-0.16 0-0.48 0.16-0.48 0.48v16c0 0.16 0.16 0.48 0.48 0.48h17.6c0.16 0 0.48-0.16 0.48-0.48v-16c0-0.16-0.16-0.48-0.48-0.48h-17.6z"></path><path d="M26.4 14.88h-20.8c-0.64 0-1.28-0.48-1.28-1.28s0.48-1.28 1.28-1.28h20.8c0.64 0 1.28 0.48 1.28 1.28s-0.64 1.28-1.28 1.28z"></path><path d="M10.4 10.88c-0.64 0-1.12-0.64-1.12-1.28v-4.8c0-0.64 0.48-1.28 1.28-1.28s1.12 0.64 1.12 1.28v4.8c0 0.64-0.64 1.28-1.28 1.28z"></path><path d="M21.6 10.88c-0.64 0-1.28-0.48-1.28-1.28v-4.8c0-0.64 0.48-1.28 1.28-1.28s1.28 0.48 1.28 1.28v4.8c0 0.64-0.64 1.28-1.28 1.28z"></path></svg>
