<svg xmlns="http://www.w3.org/2000/svg" viewBox="0 0 32 32"><path d="M28.16 28.8h-24.48c-1.92-0.16-2.56-1.76-2.56-1.76-0.8-1.44 0-2.88 0-2.88l12.16-21.12c0.32-0.16 0.8-1.28 2.72-1.44 0 0 0 0 0 0 1.76 0 2.56 1.44 2.56 1.44l12 20.8c0 0.16 0.16 0.16 0.16 0.32 0 0 0 0 0 0 1.12 2.080 0 4.48-2.56 4.64zM16 4c-0.16 0-0.48 0-0.64 0.32l-12.16 20.96c-0.16 0.32 0 0.64 0 0.8 0.16 0.16 0.32 0.48 0.64 0.48h24.16c0.48 0 0.64-0.32 0.64-0.48 0.16-0.16 0.16-0.48 0-0.8l-12-20.8c-0.16-0.48-0.48-0.48-0.64-0.48v0z"></path><path d="M16 18.88c-0.64 0-1.28-0.48-1.28-1.28v-6.4c0-0.64 0.48-1.28 1.28-1.28s1.28 0.48 1.28 1.28v6.4c0 0.64-0.64 1.28-1.28 1.28z"></path><path d="M17.6 22.4c0 0.96-0.64 1.6-1.6 1.6s-1.6-0.64-1.6-1.6 0.64-1.6 1.6-1.6c0.96 0 1.6 0.64 1.6 1.6z"></path></svg>