<svg viewBox="0 0 32 32" xmlns="http://www.w3.org/2000/svg"><path d="M11.36 30.4c-1.12 0-2.24-0.48-3.040-1.28l-6.88-6.88c-0.96-0.8-1.44-1.92-1.44-3.2 0-1.12 0.48-2.24 1.28-3.040l14.72-14.72c1.76-1.76 4.48-1.76 6.24 0l6.88 6.88c1.76 1.76 1.76 4.48 0 6.24l-14.72 14.72c-0.8 0.8-1.92 1.28-3.040 1.28zM17.76 3.040l-14.72 14.72c-0.32 0.32-0.64 0.8-0.64 1.44s0.16 0.96 0.64 1.44l6.88 6.88c0.8 0.8 2.080 0.8 2.88 0l14.72-14.72c0.8-0.8 0.8-2.080 0-2.88l-6.88-6.88c-0.96-0.8-2.24-0.8-2.88 0v0z"></path><path d="M14.080 8.48c-0.64 0.64-1.6 0.64-2.24 0s-0.64-1.76 0-2.4c0.64-0.64 1.6-0.64 2.24 0s0.64 1.76 0 2.4z"></path><path d="M17.44 11.84c-0.64 0.64-1.6 0.64-2.24 0s-0.64-1.6 0-2.24c0.64-0.64 1.6-0.64 2.24 0s0.64 1.6 0 2.24z"></path><path d="M24.32 18.56c-0.64 0.64-1.6 0.64-2.24 0s-0.64-1.6 0-2.24c0.64-0.64 1.6-0.64 2.24 0 0.48 0.64 0.48 1.6 0 2.24z"></path><path d="M20.8 15.2c-0.64 0.64-1.6 0.64-2.24 0s-0.64-1.6 0-2.24c0.64-0.64 1.6-0.64 2.24 0s0.64 1.6 0 2.24z"></path></svg>