<svg viewBox="0 0 32 32" xmlns="http://www.w3.org/2000/svg"><path d="M22.56 26.56h-4.64c-0.64 0-1.28-0.48-1.28-1.28v-6.4h-2.24v6.4c0 0.64-0.48 1.28-1.28 1.28h-4.32c-1.12 0-2.080-0.96-2.080-2.080v-6.24c0-0.64 0.48-1.28 1.28-1.28s1.28 0.48 1.28 1.28v5.76h2.88v-5.6c0-1.12 0.96-2.080 2.080-2.080h3.2c1.12 0 2.080 0.96 2.080 2.080v5.6h3.040v-5.76c0-0.64 0.48-1.28 1.28-1.28s1.28 0.48 1.28 1.28v6.24c-0.48 1.28-1.44 2.080-2.56 2.080z"></path><path d="M26.4 16.48c-0.32 0-0.48-0.16-0.8-0.32l-9.44-8c0-0.16-0.32-0.16-0.48 0l-9.44 8c-0.48 0.48-1.28 0.32-1.76-0.16s-0.16-1.28 0.32-1.76l9.44-8c1.12-0.96 2.56-0.96 3.68 0l9.44 8c0.48 0.48 0.64 1.12 0.16 1.76-0.48 0.32-0.8 0.48-1.12 0.48z"></path><path d="M23.2 13.28c-0.64 0-1.28-0.48-1.28-1.28v-3.2c0-0.64 0.48-1.28 1.28-1.28s1.28 0.48 1.28 1.28v3.2c0 0.64-0.64 1.28-1.28 1.28z"></path></svg>